<?xml version="1.0" encoding="UTF-8" standalone="no"?>
<!-- Created with Inkscape (http://www.inkscape.org/) -->

<svg
   width="180.39342mm"
   height="100mm"
   viewBox="0 0 180.39342 100"
   version="1.1"
   id="svg11775"
   sodipodi:docname="logo.svg"
   inkscape:export-filename="logo.png"
   inkscape:export-xdpi="96"
   inkscape:export-ydpi="96"
   inkscape:version="1.1 (1:1.1+202105261518+ce6663b3b7)"
   xmlns:inkscape="http://www.inkscape.org/namespaces/inkscape"
   xmlns:sodipodi="http://sodipodi.sourceforge.net/DTD/sodipodi-0.dtd"
   xmlns="http://www.w3.org/2000/svg"
   xmlns:svg="http://www.w3.org/2000/svg">
  <sodipodi:namedview
     id="namedview11777"
     pagecolor="#ffffff"
     bordercolor="#666666"
     borderopacity="1.0"
     inkscape:pageshadow="2"
     inkscape:pageopacity="0.0"
     inkscape:pagecheckerboard="0"
     inkscape:document-units="mm"
     showgrid="false"
     inkscape:zoom="1"
     inkscape:cx="416"
     inkscape:cy="232"
     inkscape:window-width="1663"
     inkscape:window-height="994"
     inkscape:window-x="1619"
     inkscape:window-y="261"
     inkscape:window-maximized="0"
     inkscape:current-layer="layer1"
     fit-margin-top="0"
     fit-margin-left="0"
     fit-margin-right="0"
     fit-margin-bottom="0" />
  <defs
     id="defs11772" />
  <g
     inkscape:label="Layer 1"
     inkscape:groupmode="layer"
     id="layer1"
     transform="translate(-13.503249,-2.1356051)">
    <rect
       style="fill:#ff5555;stroke-width:0.305567"
       id="rect13155-26-8"
       width="23.098007"
       height="23.098007"
       x="139.98892"
       y="-102.8755"
       transform="matrix(0.5002596,0.86587547,-0.5002596,0.86587547,0,0)" />
    <path
       id="rect13155-0-1"
       style="fill:#d400aa;stroke-width:2.15151"
       d="M 548.9707 37.794922 L 461.49414 188.97656 L 548.9707 340.1582 L 636.44727 188.97656 L 548.9707 37.794922 z M 573.05469 150.80078 L 594.92383 188.5957 L 573.05469 226.39062 L 551.18555 188.5957 L 573.05469 150.80078 z "
       transform="matrix(0.26458333,0,0,0.26458333,13.503249,2.1356051)" />
    <path
       id="rect13155-0-6"
       style="fill:#d400aa;stroke-width:1.61363"
       d="M 549.19336 75.455078 L 483.58594 188.83984 L 549.19336 302.22656 L 614.80273 188.83984 L 549.19336 75.455078 z M 573.05469 150.80078 L 594.92383 188.5957 L 573.05469 226.39062 L 551.18555 188.5957 L 573.05469 150.80078 z "
       transform="matrix(0.26458333,0,0,0.26458333,13.503249,2.1356051)" />
    <path
       id="rect13155-0"
       style="fill:#800066;stroke-width:1.07575"
       d="M 551.18555 113.00586 L 507.44727 188.5957 L 551.18555 264.18555 L 573.05469 226.39062 L 551.18555 188.5957 L 573.05469 150.80078 L 551.18555 113.00586 z "
       transform="matrix(0.26458333,0,0,0.26458333,13.503249,2.1356051)" />
    <rect
       style="fill:#ff9955;stroke-width:0.305567"
       id="rect13155-26"
       width="23.098007"
       height="23.098007"
       x="104.0076"
       y="-66.894173"
       transform="matrix(0.5002596,0.86587547,-0.5002596,0.86587547,0,0)" />
    <rect
       style="fill:#d5f6ff;stroke-width:0.284313"
       id="rect12661"
       width="50"
       height="23.094011"
       x="6.949749"
       y="37.107002"
       transform="matrix(1,0,0.5,0.8660254,0,0)" />
    <rect
       style="fill:#80e5ff;stroke-width:0.284313"
       id="rect12661-7"
       width="50"
       height="23.094011"
       x="67.150757"
       y="-83.295021"
       transform="matrix(1,0,0.5,-0.8660254,0,0)" />
    <rect
       style="fill:#ffaaaa;stroke-width:0.284313"
       id="rect13024"
       width="20"
       height="23.094011"
       x="102.94398"
       y="37.118549"
       transform="matrix(1,0,0.5,0.8660254,0,0)" />
    <rect
       style="fill:#ff8080;stroke-width:0.284313"
       id="rect13024-7"
       width="20"
       height="23.094011"
       x="163.15076"
       y="-83.295021"
       transform="matrix(1,0,0.5,-0.8660254,0,0)" />
    <rect
       style="fill:#ffaaee;stroke-width:0.201769"
       id="rect14475"
       width="12"
       height="46.188023"
       x="151.74515"
       y="14.012996"
       transform="matrix(1,0,0.5,0.8660254,0,0)" />
    <rect
       style="fill:#ff80e5;stroke-width:0.201769"
       id="rect14475-1"
       width="12"
       height="46.188023"
       x="-223.99718"
       y="60.201027"
       transform="matrix(-1,0,-0.5,0.8660254,0,0)" />
    <rect
       style="fill:#ffb380;stroke-width:0.284313"
       id="rect18015"
       width="25"
       height="23.094011"
       x="127.15076"
       y="60.201012"
       transform="matrix(1,0,-0.5,0.8660254,0,0)" />
    <rect
       style="fill:#ffccaa;stroke-width:0.284313"
       id="rect18015-0"
       width="25"
       height="23.094011"
       x="-91.949745"
       y="37.107002"
       transform="matrix(-1,0,0.5,0.8660254,0,0)" />
    <rect
       style="fill:#00ccff;stroke-width:0.305567"
       id="rect13155-26-85"
       width="23.098007"
       height="23.098007"
       x="44.038738"
       y="-6.9253106"
       transform="matrix(0.5002596,0.86587547,-0.5002596,0.86587547,0,0)" />
  </g>
</svg>
